<svg width="1920" height="971" viewBox="0 0 1920 971" fill="none" xmlns="http://www.w3.org/2000/svg">
<g opacity="0.3" filter="url(#filter0_f_19_1227)">
<path d="M-183.277 866.461L-57.6408 455.287H58.2876L183.924 866.461H103.974L-7.95719 503.828H6.89076L-103.327 866.461H-183.277ZM-107.895 780.8V708.273H109.113V780.8H-107.895ZM391.274 875.027C358.151 875.027 329.026 868.365 303.899 855.039C278.772 841.524 259.165 822.583 245.078 798.217C230.992 773.852 223.948 745.203 223.948 712.271V455.858L302.757 455.287V711.699C302.757 725.215 305.041 737.493 309.61 748.534C314.178 759.575 320.46 769.093 328.455 777.088C336.641 785.083 346.063 791.269 356.724 795.648C367.574 799.835 379.091 801.929 391.274 801.929C403.837 801.929 415.449 799.74 426.109 795.362C436.96 790.984 446.382 784.797 454.377 776.802C462.372 768.807 468.559 759.289 472.937 748.248C477.506 737.208 479.79 725.025 479.79 711.699V455.287H558.599V712.271C558.599 745.203 551.555 773.852 537.469 798.217C523.382 822.583 503.775 841.524 478.648 855.039C453.521 868.365 424.396 875.027 391.274 875.027ZM733.682 866.461V527.813H604.048V455.287H940.983V527.813H811.349V866.461H733.682ZM986.869 866.461V455.287H1255.27V527.813H1064.54V615.759H1221.01V688.285H1064.54V793.934H1255.27V866.461H986.869ZM1485.68 875.027C1444.56 875.027 1409.06 866.08 1379.17 848.187C1349.48 830.293 1326.54 805.261 1310.36 773.09C1294.37 740.92 1286.37 703.514 1286.37 660.874C1286.37 618.233 1294.37 580.828 1310.36 548.657C1326.54 516.487 1349.48 491.455 1379.17 473.561C1409.06 455.667 1444.56 446.721 1485.68 446.721C1532.89 446.721 1572.48 458.428 1604.46 481.842C1636.63 505.256 1659.28 536.95 1672.42 576.926L1594.18 598.627C1586.57 573.69 1573.72 554.368 1555.63 540.662C1537.55 526.766 1514.23 519.818 1485.68 519.818C1459.6 519.818 1437.8 525.624 1420.29 537.236C1402.97 548.848 1389.93 565.219 1381.17 586.348C1372.41 607.478 1368.04 632.32 1368.04 660.874C1368.04 689.428 1372.41 714.269 1381.17 735.399C1389.93 756.529 1402.97 772.9 1420.29 784.512C1437.8 796.123 1459.6 801.929 1485.68 801.929C1514.23 801.929 1537.55 794.981 1555.63 781.085C1573.72 767.189 1586.57 747.868 1594.18 723.121L1672.42 744.822C1659.28 784.797 1636.63 816.492 1604.46 839.906C1572.48 863.32 1532.89 875.027 1485.68 875.027ZM1735.29 866.461V455.287H1812.96V624.325H1996.84V455.287H2074.51V866.461H1996.84V696.852H1812.96V866.461H1735.29Z" fill="#3E4247"/>
<path d="M-183.277 866.461L-57.6408 455.287H58.2876L183.924 866.461H103.974L-7.95719 503.828H6.89076L-103.327 866.461H-183.277ZM-107.895 780.8V708.273H109.113V780.8H-107.895ZM391.274 875.027C358.151 875.027 329.026 868.365 303.899 855.039C278.772 841.524 259.165 822.583 245.078 798.217C230.992 773.852 223.948 745.203 223.948 712.271V455.858L302.757 455.287V711.699C302.757 725.215 305.041 737.493 309.61 748.534C314.178 759.575 320.46 769.093 328.455 777.088C336.641 785.083 346.063 791.269 356.724 795.648C367.574 799.835 379.091 801.929 391.274 801.929C403.837 801.929 415.449 799.74 426.109 795.362C436.96 790.984 446.382 784.797 454.377 776.802C462.372 768.807 468.559 759.289 472.937 748.248C477.506 737.208 479.79 725.025 479.79 711.699V455.287H558.599V712.271C558.599 745.203 551.555 773.852 537.469 798.217C523.382 822.583 503.775 841.524 478.648 855.039C453.521 868.365 424.396 875.027 391.274 875.027ZM733.682 866.461V527.813H604.048V455.287H940.983V527.813H811.349V866.461H733.682ZM986.869 866.461V455.287H1255.27V527.813H1064.54V615.759H1221.01V688.285H1064.54V793.934H1255.27V866.461H986.869ZM1485.68 875.027C1444.56 875.027 1409.06 866.08 1379.17 848.187C1349.48 830.293 1326.54 805.261 1310.36 773.09C1294.37 740.92 1286.37 703.514 1286.37 660.874C1286.37 618.233 1294.37 580.828 1310.36 548.657C1326.54 516.487 1349.48 491.455 1379.17 473.561C1409.06 455.667 1444.56 446.721 1485.68 446.721C1532.89 446.721 1572.48 458.428 1604.46 481.842C1636.63 505.256 1659.28 536.95 1672.42 576.926L1594.18 598.627C1586.57 573.69 1573.72 554.368 1555.63 540.662C1537.55 526.766 1514.23 519.818 1485.68 519.818C1459.6 519.818 1437.8 525.624 1420.29 537.236C1402.97 548.848 1389.93 565.219 1381.17 586.348C1372.41 607.478 1368.04 632.32 1368.04 660.874C1368.04 689.428 1372.41 714.269 1381.17 735.399C1389.93 756.529 1402.97 772.9 1420.29 784.512C1437.8 796.123 1459.6 801.929 1485.68 801.929C1514.23 801.929 1537.55 794.981 1555.63 781.085C1573.72 767.189 1586.57 747.868 1594.18 723.121L1672.42 744.822C1659.28 784.797 1636.63 816.492 1604.46 839.906C1572.48 863.32 1532.89 875.027 1485.68 875.027ZM1735.29 866.461V455.287H1812.96V624.325H1996.84V455.287H2074.51V866.461H1996.84V696.852H1812.96V866.461H1735.29Z" fill="url(#paint0_radial_19_1227)"/>
<path d="M-183.277 866.461L-57.6408 455.287H58.2876L183.924 866.461H103.974L-7.95719 503.828H6.89076L-103.327 866.461H-183.277ZM-107.895 780.8V708.273H109.113V780.8H-107.895ZM391.274 875.027C358.151 875.027 329.026 868.365 303.899 855.039C278.772 841.524 259.165 822.583 245.078 798.217C230.992 773.852 223.948 745.203 223.948 712.271V455.858L302.757 455.287V711.699C302.757 725.215 305.041 737.493 309.61 748.534C314.178 759.575 320.46 769.093 328.455 777.088C336.641 785.083 346.063 791.269 356.724 795.648C367.574 799.835 379.091 801.929 391.274 801.929C403.837 801.929 415.449 799.74 426.109 795.362C436.96 790.984 446.382 784.797 454.377 776.802C462.372 768.807 468.559 759.289 472.937 748.248C477.506 737.208 479.79 725.025 479.79 711.699V455.287H558.599V712.271C558.599 745.203 551.555 773.852 537.469 798.217C523.382 822.583 503.775 841.524 478.648 855.039C453.521 868.365 424.396 875.027 391.274 875.027ZM733.682 866.461V527.813H604.048V455.287H940.983V527.813H811.349V866.461H733.682ZM986.869 866.461V455.287H1255.27V527.813H1064.54V615.759H1221.01V688.285H1064.54V793.934H1255.27V866.461H986.869ZM1485.68 875.027C1444.56 875.027 1409.06 866.08 1379.17 848.187C1349.48 830.293 1326.54 805.261 1310.36 773.09C1294.37 740.92 1286.37 703.514 1286.37 660.874C1286.37 618.233 1294.37 580.828 1310.36 548.657C1326.54 516.487 1349.48 491.455 1379.17 473.561C1409.06 455.667 1444.56 446.721 1485.68 446.721C1532.89 446.721 1572.48 458.428 1604.46 481.842C1636.63 505.256 1659.28 536.95 1672.42 576.926L1594.18 598.627C1586.57 573.69 1573.72 554.368 1555.63 540.662C1537.55 526.766 1514.23 519.818 1485.68 519.818C1459.6 519.818 1437.8 525.624 1420.29 537.236C1402.97 548.848 1389.93 565.219 1381.17 586.348C1372.41 607.478 1368.04 632.32 1368.04 660.874C1368.04 689.428 1372.41 714.269 1381.17 735.399C1389.93 756.529 1402.97 772.9 1420.29 784.512C1437.8 796.123 1459.6 801.929 1485.68 801.929C1514.23 801.929 1537.55 794.981 1555.63 781.085C1573.72 767.189 1586.57 747.868 1594.18 723.121L1672.42 744.822C1659.28 784.797 1636.63 816.492 1604.46 839.906C1572.48 863.32 1532.89 875.027 1485.68 875.027ZM1735.29 866.461V455.287H1812.96V624.325H1996.84V455.287H2074.51V866.461H1996.84V696.852H1812.96V866.461H1735.29Z" fill="url(#paint1_radial_19_1227)" fill-opacity="0.6"/>
<path d="M-183.277 866.461L-57.6408 455.287H58.2876L183.924 866.461H103.974L-7.95719 503.828H6.89076L-103.327 866.461H-183.277ZM-107.895 780.8V708.273H109.113V780.8H-107.895ZM391.274 875.027C358.151 875.027 329.026 868.365 303.899 855.039C278.772 841.524 259.165 822.583 245.078 798.217C230.992 773.852 223.948 745.203 223.948 712.271V455.858L302.757 455.287V711.699C302.757 725.215 305.041 737.493 309.61 748.534C314.178 759.575 320.46 769.093 328.455 777.088C336.641 785.083 346.063 791.269 356.724 795.648C367.574 799.835 379.091 801.929 391.274 801.929C403.837 801.929 415.449 799.74 426.109 795.362C436.96 790.984 446.382 784.797 454.377 776.802C462.372 768.807 468.559 759.289 472.937 748.248C477.506 737.208 479.79 725.025 479.79 711.699V455.287H558.599V712.271C558.599 745.203 551.555 773.852 537.469 798.217C523.382 822.583 503.775 841.524 478.648 855.039C453.521 868.365 424.396 875.027 391.274 875.027ZM733.682 866.461V527.813H604.048V455.287H940.983V527.813H811.349V866.461H733.682ZM986.869 866.461V455.287H1255.27V527.813H1064.54V615.759H1221.01V688.285H1064.54V793.934H1255.27V866.461H986.869ZM1485.68 875.027C1444.56 875.027 1409.06 866.08 1379.17 848.187C1349.48 830.293 1326.54 805.261 1310.36 773.09C1294.37 740.92 1286.37 703.514 1286.37 660.874C1286.37 618.233 1294.37 580.828 1310.36 548.657C1326.54 516.487 1349.48 491.455 1379.17 473.561C1409.06 455.667 1444.56 446.721 1485.68 446.721C1532.89 446.721 1572.48 458.428 1604.46 481.842C1636.63 505.256 1659.28 536.95 1672.42 576.926L1594.18 598.627C1586.57 573.69 1573.72 554.368 1555.63 540.662C1537.55 526.766 1514.23 519.818 1485.68 519.818C1459.6 519.818 1437.8 525.624 1420.29 537.236C1402.97 548.848 1389.93 565.219 1381.17 586.348C1372.41 607.478 1368.04 632.32 1368.04 660.874C1368.04 689.428 1372.41 714.269 1381.17 735.399C1389.93 756.529 1402.97 772.9 1420.29 784.512C1437.8 796.123 1459.6 801.929 1485.68 801.929C1514.23 801.929 1537.55 794.981 1555.63 781.085C1573.72 767.189 1586.57 747.868 1594.18 723.121L1672.42 744.822C1659.28 784.797 1636.63 816.492 1604.46 839.906C1572.48 863.32 1532.89 875.027 1485.68 875.027ZM1735.29 866.461V455.287H1812.96V624.325H1996.84V455.287H2074.51V866.461H1996.84V696.852H1812.96V866.461H1735.29Z" fill="url(#paint2_radial_19_1227)" fill-opacity="0.6"/>
</g>
<g opacity="0.5" filter="url(#filter1_f_19_1227)">
<ellipse cx="555.5" cy="511" rx="555.5" ry="511" transform="matrix(-1 0 0 1 1304 -510)" fill="#3E4855"/>
</g>
<g opacity="0.2" filter="url(#filter2_f_19_1227)">
<ellipse cx="1072" cy="317" rx="268" ry="254" fill="white"/>
</g>
<defs>
<filter id="filter0_f_19_1227" x="-193.277" y="436.72" width="2277.79" height="448.307" filterUnits="userSpaceOnUse" color-interpolation-filters="sRGB">
<feFlood flood-opacity="0" result="BackgroundImageFix"/>
<feBlend mode="normal" in="SourceGraphic" in2="BackgroundImageFix" result="shape"/>
<feGaussianBlur stdDeviation="5" result="effect1_foregroundBlur_19_1227"/>
</filter>
<filter id="filter1_f_19_1227" x="-207" y="-910" width="1911" height="1822" filterUnits="userSpaceOnUse" color-interpolation-filters="sRGB">
<feFlood flood-opacity="0" result="BackgroundImageFix"/>
<feBlend mode="normal" in="SourceGraphic" in2="BackgroundImageFix" result="shape"/>
<feGaussianBlur stdDeviation="200" result="effect1_foregroundBlur_19_1227"/>
</filter>
<filter id="filter2_f_19_1227" x="404" y="-337" width="1336" height="1308" filterUnits="userSpaceOnUse" color-interpolation-filters="sRGB">
<feFlood flood-opacity="0" result="BackgroundImageFix"/>
<feBlend mode="normal" in="SourceGraphic" in2="BackgroundImageFix" result="shape"/>
<feGaussianBlur stdDeviation="200" result="effect1_foregroundBlur_19_1227"/>
</filter>
<radialGradient id="paint0_radial_19_1227" cx="0" cy="0" r="1" gradientUnits="userSpaceOnUse" gradientTransform="translate(1523.9 831.501) rotate(61.2164) scale(554.741 1293.18)">
<stop stop-color="#3D4249"/>
<stop offset="1" stop-color="#142F52" stop-opacity="0"/>
</radialGradient>
<radialGradient id="paint1_radial_19_1227" cx="0" cy="0" r="1" gradientUnits="userSpaceOnUse" gradientTransform="translate(-129.584 862.961) rotate(76.6551) scale(336.558 1322.2)">
<stop/>
<stop offset="1" stop-opacity="0"/>
</radialGradient>
<radialGradient id="paint2_radial_19_1227" cx="0" cy="0" r="1" gradientUnits="userSpaceOnUse" gradientTransform="translate(1767 865.999) rotate(177.641) scale(619.525 2433.86)">
<stop/>
<stop offset="1" stop-opacity="0"/>
</radialGradient>
</defs>
</svg>
