<svg width="16" height="18" viewBox="0 0 16 18" fill="none" xmlns="http://www.w3.org/2000/svg">
<path d="M14.4392 8.17301L11.1572 14.0691C10.5769 15.1117 9.54776 15.8285 8.29623 16.0619C7.04471 16.2954 5.67329 16.0263 4.48368 15.3139C3.29406 14.6016 2.3837 13.5042 1.95286 12.2633C1.52202 11.0224 1.60599 9.73954 2.1863 8.69701L4.15577 5.15882C4.21874 5.06384 4.32111 5.00078 4.44214 4.98241C4.56318 4.96404 4.69383 4.99174 4.80764 5.05989C4.92144 5.12804 5.00989 5.23156 5.05507 5.34946C5.10026 5.46736 5.09879 5.59085 5.05097 5.6949L3.08149 9.23309C2.84125 9.6457 2.69744 10.1123 2.65845 10.6058C2.61946 11.0993 2.68607 11.6097 2.85439 12.1073C3.02272 12.6049 3.2894 13.0798 3.63888 13.5042C3.98836 13.9286 4.41365 14.2941 4.88996 14.5793C5.36627 14.8645 5.88407 15.0638 6.41317 15.1655C6.94227 15.2672 7.47208 15.2694 7.97173 15.1718C8.47137 15.0742 8.93085 14.8788 9.32338 14.597C9.7159 14.3153 10.0336 13.9528 10.258 13.5307L13.54 7.63455C13.6919 7.37675 13.7832 7.08477 13.8088 6.77572C13.8343 6.46667 13.7935 6.14677 13.6887 5.83477C13.5839 5.52277 13.4172 5.22495 13.1984 4.95877C12.9797 4.69258 12.7132 4.46338 12.4147 4.28462C12.1162 4.10585 11.7916 3.9811 11.4599 3.91769C11.1283 3.85428 10.7963 3.85348 10.4834 3.91534C10.1705 3.9772 9.88298 4.10047 9.63771 4.27793C9.39244 4.45539 9.19434 4.68347 9.05503 4.94879L6.21072 10.0586C6.0949 10.2667 6.07814 10.5227 6.16413 10.7704C6.25012 11.018 6.43181 11.2371 6.66923 11.3792C6.90665 11.5214 7.18036 11.5751 7.43013 11.5285C7.67991 11.4819 7.8853 11.3389 8.00112 11.1308L10.4083 6.80634C10.4341 6.75018 10.4726 6.70142 10.5215 6.66308C10.5703 6.62474 10.6285 6.59765 10.6923 6.58347C10.7562 6.56928 10.8243 6.56832 10.8926 6.58064C10.9609 6.59296 11.0278 6.6183 11.0892 6.65508C11.1507 6.69187 11.2053 6.73931 11.2497 6.79448C11.2941 6.84965 11.3274 6.91137 11.3475 6.97581C11.3676 7.04025 11.374 7.10604 11.3665 7.1691C11.3589 7.23217 11.3374 7.29116 11.3035 7.34242L8.8968 11.666C8.66465 12.0831 8.25296 12.3698 7.7523 12.4632C7.25163 12.5566 6.703 12.449 6.2271 12.164C5.75121 11.879 5.38702 11.44 5.21466 10.9436C5.04231 10.4472 5.0759 9.93398 5.30805 9.51692L8.15188 4.40795C8.34788 4.03805 8.62571 3.72031 8.96915 3.47328C9.31259 3.22624 9.71476 3.05487 10.1522 2.96915C10.5896 2.88344 11.0535 2.8851 11.5168 2.97404C11.9801 3.06299 12.4335 3.23743 12.8506 3.48719C13.2677 3.73695 13.6401 4.05702 13.946 4.42872C14.2519 4.80042 14.4852 5.21629 14.6324 5.65206C14.7795 6.08784 14.8375 6.53477 14.803 6.96679C14.7684 7.3988 14.642 7.80724 14.4312 8.16824L14.4392 8.17301Z" fill="#1F1F1F"/>
</svg>
