<svg width="24" height="24" viewBox="0 0 24 24" fill="none" xmlns="http://www.w3.org/2000/svg">
<g clip-path="url(#clip0_2001_2878)">
<path d="M8.99941 20.8004C8.88927 20.8007 8.80041 20.8895 8.8002 20.9997L8.81543 21.0782C8.84579 21.1497 8.91682 21.1999 8.99941 21.2C9.10987 21.2 9.19981 21.1101 9.19981 20.9997C9.19965 20.9171 9.14949 20.846 9.07793 20.8157L8.99941 20.8004ZM11.2002 20.9997C11.2002 22.2147 10.2144 23.2004 8.99941 23.2004C7.78457 23.2002 6.7998 22.2146 6.7998 20.9997C6.80002 19.7849 7.7847 18.8003 8.99941 18.8C10.2143 18.8 11.2 19.7848 11.2002 20.9997Z" fill="white"/>
<path d="M19.9994 20.8004C19.8893 20.8007 19.8004 20.8895 19.8002 20.9997L19.8154 21.0782C19.8458 21.1497 19.9168 21.1999 19.9994 21.2C20.1099 21.2 20.1998 21.1101 20.1998 20.9997C20.1996 20.9171 20.1495 20.846 20.0779 20.8157L19.9994 20.8004ZM22.2002 20.9997C22.2002 22.2147 21.2144 23.2004 19.9994 23.2004C18.7846 23.2002 17.7998 22.2146 17.7998 20.9997C17.8 19.7849 18.7847 18.8003 19.9994 18.8C21.2143 18.8 22.2 19.7848 22.2002 20.9997Z" fill="white"/>
<path d="M4.99941 -0.199951C5.57132 -0.199951 6.06368 0.203741 6.17598 0.764502L6.9834 4.80044H22.9994C23.357 4.80044 23.6961 4.95973 23.924 5.23521C24.1519 5.51062 24.2451 5.87313 24.1783 6.22427L22.5787 14.6149L22.5764 14.6243L21.3998 14.3899L21.3248 14.3747L22.5764 14.6243C22.43 15.3607 22.0292 16.0226 21.4443 16.4934C20.8652 16.9594 20.1422 17.2079 19.3994 17.1989L9.67988 17.2001C8.93711 17.209 8.214 16.9595 7.63496 16.4934C7.05036 16.0228 6.6495 15.3614 6.50293 14.6254L4.82832 6.2606C4.82515 6.24627 4.82277 6.23175 4.82012 6.21724L4.01621 2.20005H0.999805C0.337063 2.20005 -0.200195 1.66279 -0.200195 1.00005C-0.200195 0.337307 0.337063 -0.199951 0.999805 -0.199951H4.99941ZM8.85606 14.1543L8.85723 14.1567C8.89385 14.3405 8.99371 14.5055 9.13965 14.6231C9.28581 14.7408 9.46885 14.8036 9.65645 14.8H19.4229L19.3994 16V16.0305L19.4229 14.8C19.6106 14.8036 19.7934 14.7408 19.9396 14.6231C20.0838 14.507 20.1831 14.3448 20.2209 14.1637L21.5486 7.20044H7.46387L8.85606 14.1543Z" fill="white"/>
</g>
<defs>
<clipPath id="clip0_2001_2878">
<rect width="24" height="24" fill="white"/>
</clipPath>
</defs>
</svg>
