<svg width="24" height="24" viewBox="0 0 24 24" fill="none" xmlns="http://www.w3.org/2000/svg">
<g opacity="0.5">
<path d="M15.501 12C15.501 12.4596 15.4104 12.9148 15.2346 13.3394C15.0587 13.764 14.8009 14.1499 14.4759 14.4749C14.1508 14.7999 13.765 15.0577 13.3404 15.2336C12.9157 15.4095 12.4606 15.5 12.001 15.5C11.5414 15.5 11.0862 15.4095 10.6616 15.2336C10.2369 15.0577 9.85111 14.7999 9.5261 14.4749C9.2011 14.1499 8.94329 13.764 8.7674 13.3394C8.59151 12.9148 8.50098 12.4596 8.50098 12C8.50098 11.0717 8.86973 10.1815 9.5261 9.52513C10.1825 8.86875 11.0727 8.5 12.001 8.5C12.9292 8.5 13.8195 8.86875 14.4759 9.52513C15.1322 10.1815 15.501 11.0717 15.501 12Z" fill="#525353"/>
<path d="M12.001 3.5C15.433 3.5 18.125 5.034 20.055 6.741C21.981 8.444 23.187 10.351 23.671 11.201C23.811 11.444 23.8848 11.7195 23.8848 12C23.8848 12.2805 23.811 12.556 23.671 12.799C23.187 13.649 21.981 15.556 20.055 17.26C18.126 18.966 15.433 20.5 12.001 20.5C8.56897 20.5 5.87697 18.966 3.94697 17.26C2.02097 15.558 0.81497 13.65 0.33097 12.8C0.190912 12.557 0.117188 12.2815 0.117188 12.001C0.117188 11.7205 0.190912 11.445 0.33097 11.202C0.81497 10.352 2.02097 8.445 3.94697 6.74C5.87597 5.034 8.56897 3.5 12.001 3.5ZM1.63397 11.945C1.62373 11.9616 1.61788 11.9805 1.61697 12C1.61797 12.02 1.62297 12.039 1.63397 12.056C2.07497 12.83 3.18497 14.583 4.94097 16.136C6.69197 17.685 9.04597 19 12.001 19C14.956 19 17.311 17.685 19.061 16.136C20.817 14.583 21.927 12.83 22.368 12.056C22.3785 12.0392 22.3844 12.0199 22.385 12C22.3844 11.9801 22.3785 11.9608 22.368 11.944C21.927 11.171 20.817 9.417 19.061 7.864C17.31 6.315 14.956 5 12.001 5C9.04597 5 6.69097 6.314 4.94097 7.865C3.18497 9.417 2.07497 11.171 1.63397 11.945Z" fill="#525353"/>
</g>
</svg>
