<svg width="24" height="24" viewBox="0 0 24 24" fill="none" xmlns="http://www.w3.org/2000/svg">
<g>
<g>
<path d="M8.05212 5.837C9.29503 5.28472 10.64 4.99957 12.0001 5C14.9551 5 17.3091 6.315 19.0601 7.864C20.8161 9.417 21.9261 11.171 22.3671 11.944C22.3772 11.9606 22.3827 11.9796 22.3831 11.999C22.3827 12.0201 22.3769 12.0408 22.3661 12.059C21.9165 12.8382 21.4048 13.5799 20.8361 14.277C20.7701 14.3529 20.72 14.4413 20.6888 14.5369C20.6576 14.6326 20.6459 14.7335 20.6546 14.8337C20.6632 14.934 20.6919 15.0314 20.739 15.1203C20.786 15.2093 20.8505 15.2878 20.9285 15.3513C21.0066 15.4148 21.0966 15.4619 21.1932 15.4899C21.2899 15.5178 21.3911 15.5261 21.491 15.5141C21.5909 15.5022 21.6874 15.4702 21.7747 15.4202C21.862 15.3702 21.9383 15.3031 21.9991 15.223C22.62 14.4626 23.1784 13.6533 23.6691 12.803C23.8094 12.5594 23.8833 12.2832 23.8835 12.0021C23.8837 11.721 23.8101 11.4448 23.6701 11.201C23.1851 10.351 21.9801 8.444 20.0541 6.741C18.1241 5.034 15.4321 3.5 12.0001 3.5C10.3051 3.5 8.78512 3.874 7.44812 4.463C7.26704 4.54373 7.12528 4.69289 7.05386 4.87785C6.98245 5.06281 6.98717 5.26853 7.06701 5.45001C7.14685 5.6315 7.2953 5.77398 7.4799 5.84632C7.66451 5.91865 7.87025 5.91594 8.05212 5.837ZM19.1661 17.987C17.3281 19.38 14.9331 20.5 12.0001 20.5C8.56812 20.5 5.87512 18.966 3.94612 17.26C2.02012 15.556 0.814123 13.648 0.330123 12.798C0.190431 12.5545 0.117012 12.2786 0.117188 11.9979C0.117363 11.7171 0.191127 11.4413 0.331123 11.198C1.22576 9.64712 2.34336 8.23606 3.64812 7.01L1.31712 5.362C1.2336 5.30645 1.16207 5.2347 1.10677 5.15102C1.05146 5.06733 1.01351 4.9734 0.99515 4.87478C0.976791 4.77617 0.978402 4.67487 0.999886 4.57689C1.02137 4.4789 1.06229 4.38623 1.12023 4.30434C1.17816 4.22245 1.25194 4.15302 1.33719 4.10015C1.42243 4.04728 1.51742 4.01205 1.61652 3.99654C1.71563 3.98103 1.81683 3.98556 1.91416 4.00985C2.01148 4.03415 2.10294 4.07773 2.18312 4.138L22.6831 18.638C22.7666 18.6936 22.8382 18.7653 22.8935 18.849C22.9488 18.9327 22.9867 19.0266 23.0051 19.1252C23.0235 19.2238 23.0218 19.3251 23.0004 19.4231C22.9789 19.5211 22.938 19.6138 22.88 19.6957C22.8221 19.7775 22.7483 19.847 22.6631 19.8999C22.5778 19.9527 22.4828 19.988 22.3837 20.0035C22.2846 20.019 22.1834 20.0144 22.0861 19.9901C21.9888 19.9658 21.8973 19.9223 21.8171 19.862L19.1661 17.987ZM4.90212 7.898C3.17212 9.439 2.07412 11.171 1.63412 11.942C1.62307 11.9597 1.61718 11.9801 1.61712 12.001C1.61712 12.016 1.62012 12.035 1.63312 12.056C2.07412 12.83 3.18412 14.583 4.94012 16.136C6.69012 17.685 9.04512 19 12.0001 19C14.3341 19 16.2901 18.18 17.8741 17.073L14.3581 14.586C13.7685 15.1243 13.0125 15.4448 12.2157 15.4944C11.4189 15.544 10.629 15.3197 9.97719 14.8586C9.32537 14.3976 8.85077 13.7275 8.63213 12.9597C8.41349 12.1918 8.46394 11.3722 8.77512 10.637L4.90212 7.899V7.898Z" fill="#818181"/>
</g>
</g>
</svg>
