<svg width="51" height="50" viewBox="0 0 51 50" fill="none" xmlns="http://www.w3.org/2000/svg">
<g clip-path="url(#clip0_19_1417)">
<path d="M48.7712 11.0324L26.0692 0.0728027C25.868 -0.0242676 25.6336 -0.0242676 25.4324 0.0728027L2.73037 11.0324C2.47725 11.1545 2.31641 11.4109 2.31641 11.6919V38.3081C2.31641 38.5891 2.47725 38.8455 2.73037 38.9676L25.4323 49.9272C25.5329 49.9757 25.6419 50 25.7508 50C25.8597 50 25.9686 49.9757 26.0692 49.9272L48.7712 38.9676C49.0243 38.8455 49.1852 38.5891 49.1852 38.3081V11.692C49.1852 11.4108 49.0242 11.1546 48.7712 11.0324ZM25.7508 1.54575L46.7681 11.6919L40.6756 14.6332C40.637 14.6038 40.5963 14.5766 40.5516 14.555L19.677 4.47788L25.7508 1.54575ZM18.023 5.30601L39.0097 15.4375L34.7113 17.5126L13.7333 7.38521L18.023 5.30601ZM39.5007 16.8269V24.4974L35.4857 26.4357V18.7652L39.5007 16.8269ZM47.7203 37.8485L26.4832 48.1006V23.1112L31.5489 20.6657C31.9132 20.4898 32.0659 20.052 31.89 19.6876C31.7142 19.3235 31.2764 19.1706 30.912 19.3465L25.7508 21.8382L23.7199 20.8578C23.3556 20.6817 22.9178 20.8346 22.7419 21.1989C22.566 21.5631 22.7188 22.001 23.083 22.1769L25.0184 23.1112V48.1006L3.78125 37.8483V12.8588L19.9531 20.666C20.0558 20.7156 20.1643 20.739 20.271 20.739C20.5433 20.739 20.8048 20.5865 20.9311 20.3249C21.1069 19.9606 20.9542 19.5227 20.5899 19.3468L4.7335 11.6919L12.0094 8.17944L34.0107 18.8008C34.014 18.8053 34.0176 18.8093 34.0209 18.8137V27.6027C34.0209 27.8547 34.1505 28.089 34.364 28.2231C34.4825 28.2975 34.6178 28.3351 34.7534 28.3351C34.862 28.3351 34.9709 28.311 35.0718 28.2623L40.5516 25.6168C40.8047 25.4947 40.9655 25.2384 40.9655 24.9573V16.1199L47.7203 12.8589V37.8485Z" fill="#39AD9A"/>
<path d="M9.824 35.0076L6.49246 33.3993C6.128 33.2232 5.69031 33.3761 5.51443 33.7404C5.33855 34.1046 5.49128 34.5425 5.85554 34.7184L9.18708 36.3267C9.28972 36.3763 9.39822 36.3998 9.50495 36.3998C9.77722 36.3998 10.0387 36.2472 10.165 35.9856C10.341 35.6212 10.1883 35.1836 9.824 35.0076Z" fill="#39AD9A"/>
<path d="M12.8913 33.0109L6.49825 29.9246C6.1339 29.7487 5.6961 29.9014 5.52023 30.2658C5.34444 30.6301 5.49718 31.0679 5.86144 31.2438L12.2545 34.3301C12.3571 34.3797 12.4656 34.4032 12.5724 34.4032C12.8446 34.4032 13.1062 34.2507 13.2324 33.989C13.4083 33.6246 13.2556 33.1867 12.8913 33.0109Z" fill="#39AD9A"/>
</g>
<defs>
<clipPath id="clip0_19_1417">
<rect width="50" height="50" fill="white" transform="translate(0.75)"/>
</clipPath>
</defs>
</svg>
