<svg width="51" height="50" viewBox="0 0 51 50" fill="none" xmlns="http://www.w3.org/2000/svg">
<g clip-path="url(#clip0_19_1408)">
<path d="M46.4597 0H38.293C37.7536 0 37.3164 0.437207 37.3164 0.976562C37.3164 1.51592 37.7536 1.95312 38.293 1.95312H46.4597C47.6105 1.95312 48.5469 2.88945 48.5469 4.04033V22.4227C48.5469 23.5735 47.6105 24.5099 46.4597 24.5099H40.1662C39.6269 24.5099 39.1896 24.9471 39.1896 25.4864V29.2817L34.7037 24.7959C34.5206 24.6128 34.2723 24.5099 34.0132 24.5099H21.3372C20.1863 24.5099 19.25 23.5735 19.25 22.4227V4.04033C19.25 2.88945 20.1863 1.95312 21.3372 1.95312H38.1953C38.7347 1.95312 39.1719 1.51592 39.1719 0.976562C39.1719 0.437207 38.7347 0 38.1953 0H21.3372C19.1094 0 17.2969 1.8125 17.2969 4.04033V22.0687H4.15732C2.14063 22.0687 0.5 23.7095 0.5 25.7261V41.8106C0.5 43.8272 2.14063 45.468 4.15732 45.468H8.6875V48.419C8.6875 49.0603 9.07021 49.6331 9.6626 49.8785C9.85928 49.96 10.065 49.9996 10.2688 49.9996C10.6791 49.9996 11.0813 49.8391 11.3843 49.5361L15.4524 45.468H26.1396C28.1563 45.468 29.7969 43.8272 29.7969 41.8106V26.463H33.6088L38.2989 31.1531C38.6184 31.4726 39.0426 31.6419 39.4752 31.6419C39.6901 31.6419 39.9071 31.6001 40.1144 31.5143C40.7391 31.2555 41.1428 30.6514 41.1428 29.9752V26.463H46.4597C48.6875 26.463 50.5 24.6505 50.5 22.4227V4.04033C50.5 1.8125 48.6875 0 46.4597 0ZM27.8438 36.3661H2.45312V31.1705H27.8438V36.3661ZM26.1396 43.5148H15.0479C14.789 43.5148 14.5405 43.6178 14.3574 43.8009L10.6406 47.5177V44.4914C10.6406 43.952 10.2034 43.5148 9.66406 43.5148H4.15732C3.21758 43.5148 2.45312 42.7503 2.45312 41.8106V38.3193H27.8438V41.8106C27.8438 42.7503 27.0792 43.5148 26.1396 43.5148ZM27.8438 29.2175H2.45312V25.7262C2.45312 24.7864 3.21768 24.022 4.15732 24.022H17.6275C18.2483 25.4565 19.6771 26.4631 21.3371 26.4631H27.8438V29.2175Z" fill="#39AD9A"/>
<path d="M37.4028 18.5024H41.0217C41.561 18.5024 41.9982 18.0652 41.9982 17.5259C41.9982 16.9865 41.561 16.5493 41.0217 16.5493H38.3794V14.2083H40.7548C41.2941 14.2083 41.7313 13.7711 41.7313 13.2317C41.7313 12.6924 41.2941 12.2552 40.7548 12.2552H38.3794V9.91406H41.0217C41.561 9.91406 41.9982 9.47686 41.9982 8.9375C41.9982 8.39814 41.561 7.96094 41.0217 7.96094H37.4028C36.8635 7.96094 36.4263 8.39814 36.4263 8.9375V17.5259C36.4263 18.0652 36.8635 18.5024 37.4028 18.5024Z" fill="#39AD9A"/>
<path d="M26.7749 7.95703C26.2355 7.95703 25.7983 8.39424 25.7983 8.93359V17.522C25.7983 18.0588 26.2316 18.4949 26.7684 18.4985C26.8171 18.4988 27.5904 18.5039 28.3128 18.5039C28.6892 18.5039 29.0519 18.5025 29.2908 18.4983C31.8151 18.4543 33.6474 16.2377 33.6474 13.2277C33.6474 10.0752 31.8611 7.95703 29.2025 7.95703H26.7749ZM31.6942 13.2278C31.6942 14.8053 30.9314 16.5164 29.2567 16.5456C28.9153 16.5517 28.2889 16.5516 27.7515 16.5499V9.91016H29.2025C31.0397 9.91016 31.6942 11.6239 31.6942 13.2278Z" fill="#39AD9A"/>
<path d="M33.8984 1.95312C34.1553 1.95312 34.4072 1.84863 34.5889 1.66699C34.7705 1.48535 34.875 1.2334 34.875 0.976562C34.875 0.719727 34.7705 0.467773 34.5889 0.286133C34.4072 0.104492 34.1553 0 33.8984 0C33.6416 0 33.3896 0.104492 33.208 0.286133C33.0264 0.467773 32.9219 0.719727 32.9219 0.976562C32.9219 1.2334 33.0264 1.48535 33.208 1.66699C33.3896 1.84863 33.6416 1.95312 33.8984 1.95312Z" fill="#39AD9A"/>
</g>
<defs>
<clipPath id="clip0_19_1408">
<rect width="50" height="50" fill="white" transform="translate(0.5)"/>
</clipPath>
</defs>
</svg>
