<svg width="51" height="50" viewBox="0 0 51 50" fill="none" xmlns="http://www.w3.org/2000/svg">
<g clip-path="url(#clip0_19_1441)">
<path d="M49.8119 14.2798L41.3744 5.84237C40.631 5.09885 39.6424 4.68945 38.591 4.68945H12.409C11.3576 4.68945 10.3691 5.09885 9.62566 5.84237L1.18819 14.2798C0.326528 15.1415 0.26687 16.4956 1.04954 17.4296L23.7107 44.4768C24.1554 45.0076 24.8076 45.312 25.5001 45.312C26.1925 45.312 26.8447 45.0076 27.2894 44.4768L49.9506 17.4296C50.7332 16.4956 50.6735 15.1414 49.8119 14.2798ZM30.0735 32.7681C29.6928 32.6311 29.2734 32.8285 29.1364 33.209L25.5 43.3102L15.8725 16.5671H35.1276L30.29 30.0049C30.153 30.3854 30.3504 30.8049 30.7309 30.9419C30.8128 30.9714 30.8966 30.9854 30.9789 30.9854C31.2789 30.9854 31.5604 30.7996 31.6679 30.501L36.6841 16.5671H48.7625L27.5844 41.8442L30.5144 33.7051C30.6514 33.3246 30.454 32.905 30.0735 32.7681ZM16.8549 15.1025L25.5001 6.4574L34.1452 15.1025H16.8549ZM48.5635 15.1025H37.2114L40.214 6.76213C40.2565 6.79933 40.2985 6.83751 40.3388 6.87793L48.5635 15.1025ZM38.8705 6.17015L35.8034 14.6895L27.2678 6.15404H38.591C38.6851 6.15404 38.7783 6.1599 38.8705 6.17015ZM23.7324 6.15404L15.1966 14.6897L12.1296 6.17015C12.2218 6.1598 12.315 6.15404 12.4091 6.15404H23.7324ZM10.6612 6.87803C10.7015 6.8377 10.7435 6.79943 10.7861 6.76223L23.4156 41.844L2.23771 16.5671H11.0819C11.4864 16.5671 11.8142 16.2393 11.8142 15.8348C11.8142 15.4304 11.4864 15.1025 11.0819 15.1025H2.4366L10.6612 6.87803Z" fill="#39AD9A"/>
</g>
<defs>
<clipPath id="clip0_19_1441">
<rect width="50" height="50" fill="white" transform="translate(0.5)"/>
</clipPath>
</defs>
</svg>
