<svg width="51" height="50" viewBox="0 0 51 50" fill="none" xmlns="http://www.w3.org/2000/svg">
<path d="M44.1837 10.1236L25.3915 0.110175C25.1127 -0.038617 24.7786 -0.0365288 24.5019 0.115396L6.22967 10.1288C5.93 10.2933 5.74414 10.6076 5.74414 10.9496V24.0297C5.7551 34.7819 12.1255 44.5092 21.9771 48.8169L24.5134 49.9221C24.7504 50.0255 25.0203 50.026 25.2578 49.9232L28.1157 48.689C38.15 44.4748 44.6781 34.6534 44.6791 23.7702V10.9496C44.6791 10.6039 44.4886 10.286 44.1837 10.1236ZM42.808 23.7702C42.8059 33.9032 36.7263 43.0464 27.3832 46.9677L27.377 46.9708L24.8882 48.0453L22.7258 47.1019C13.5555 43.0923 7.62519 34.0384 7.61474 24.0297V11.5035L24.9576 1.99853L42.808 11.5103V23.7702Z" fill="#39AD9A"/>
<path d="M18.0557 23.4241C17.72 23.031 17.1295 22.9846 16.7364 23.3203C16.3432 23.6554 16.2968 24.2464 16.6325 24.639L21.5745 30.4263C21.9044 30.8126 22.4823 30.8653 22.876 30.5448L34.3857 21.1808C34.7867 20.855 34.8472 20.2656 34.5209 19.8646C34.1952 19.4642 33.6057 19.4031 33.2048 19.7294L22.404 28.516L18.0557 23.4241Z" fill="#39AD9A"/>
</svg>
