<svg width="50" height="50" viewBox="0 0 50 50" fill="none" xmlns="http://www.w3.org/2000/svg">
<g clip-path="url(#clip0_19_1429)">
<path d="M47.6553 30.4684H42.9678C42.1084 30.4684 41.4053 31.1715 41.4053 32.0309V34.5699L37.835 32.4684C37.3272 32.1637 36.8193 31.8981 36.3428 31.6715C35.4365 31.2496 34.5303 30.9449 33.5928 30.734V14.8434C34.4522 14.8434 35.1553 14.1402 35.1553 13.2809V10.9371C35.1553 10.0777 34.4522 9.37462 33.5928 9.37462H29.3037C30.7412 8.51525 31.5693 7.39025 31.8818 6.26525C32.4443 4.234 31.4522 2.18712 29.4131 1.1715C28.1084 0.523061 26.0147 0.358999 23.3897 3.24181C22.7178 3.984 21.8428 5.19494 21.1084 6.42931C18.9287 2.71056 15.8037 -0.336314 12.7803 1.1715C10.7647 2.1715 9.77247 4.18712 10.2959 6.20275C10.5928 7.34337 11.4287 8.49181 12.8975 9.37462H8.60059C7.74122 9.37462 7.03809 10.0777 7.03809 10.9371V13.2809C7.03809 14.1402 7.74122 14.8434 8.60059 14.8434V33.6324L3.70997 33.4371C3.55372 33.4371 3.38966 33.4449 3.23341 33.4684C2.27247 33.6246 1.45997 34.2496 1.06153 35.1324C0.702156 35.9137 0.694344 36.8121 1.06153 37.5934C1.42091 38.3668 2.08497 38.9371 2.85059 39.1559L20.8975 45.5543C22.96 46.1246 25.0615 46.2496 27.1397 45.9215L33.4912 44.9215L41.4131 46.7184V47.6559C41.4131 48.5152 42.1162 49.2184 42.9756 49.2184H47.6631C48.5225 49.2184 49.2256 48.5152 49.2256 47.6559V32.0309C49.2256 31.1715 48.5225 30.4684 47.6631 30.4684H47.6553ZM26.4912 2.69494C27.3037 2.27306 28.0303 2.234 28.71 2.56994C30.0615 3.24181 30.7256 4.55431 30.374 5.84337C29.8662 7.66369 27.2022 9.60119 21.3428 9.35119C22.0459 7.70275 24.1162 3.9215 26.4912 2.69494ZM11.8037 5.80431C11.4678 4.53087 12.1397 3.234 13.4756 2.56994C15.8818 1.36681 18.7568 5.30431 20.2178 8.05431C19.9912 8.53087 19.8115 8.97619 19.7022 9.359C14.5928 9.32775 12.249 7.484 11.8115 5.7965L11.8037 5.80431ZM8.59278 10.9371H33.5928V13.2809H8.59278V10.9371ZM10.1553 14.8434H32.0303V30.4762C32.0303 30.4762 32.0147 30.4762 32.0068 30.4762C30.6162 30.3434 29.585 30.4293 28.2725 30.5309L22.0068 31.1012C21.0068 31.2574 20.1397 31.7887 19.5537 32.609C19.2412 33.0465 19.0381 33.5309 18.9287 34.0465L10.1475 33.6949V14.8434H10.1553ZM33.6787 43.359C33.585 43.3356 33.4834 43.3356 33.3818 43.3512L26.8818 44.3746C25.0225 44.6637 23.1397 44.5543 21.3506 44.0621L3.31153 37.6637C2.93653 37.5621 2.63184 37.2965 2.46778 36.9371C2.30372 36.5699 2.30372 36.1559 2.46778 35.7809C2.64747 35.3746 3.02247 35.0856 3.45216 35.0152C3.53028 35.0074 3.61622 34.9996 3.66309 34.9996L18.9209 35.609C19.2568 37.2965 20.624 38.5309 22.3272 38.6324L29.7803 39.1324L29.8818 37.5699L22.4287 37.0699C21.4209 37.0074 20.6006 36.2574 20.4287 35.234C20.4287 35.2184 20.4287 35.1949 20.4287 35.1793C20.335 34.5856 20.4756 33.9996 20.8272 33.5152C21.1631 33.0387 21.6709 32.7262 22.2022 32.6481L28.0147 32.1168L28.4053 32.0856C29.6397 31.984 30.6084 31.9059 31.8662 32.0309C33.1943 32.1559 34.4365 32.4996 35.6787 33.0856C36.1162 33.2887 36.5772 33.5387 37.0459 33.8121L41.4131 36.3824V45.1168L33.6865 43.3668L33.6787 43.359ZM42.9678 47.6559V32.0309H47.6553V47.6559H42.9678Z" fill="#39AD9A"/>
<path d="M17.2734 28.5508L23.5289 16.8367L24.907 17.5727L18.6516 29.2867L17.2734 28.5508Z" fill="#39AD9A"/>
<path d="M19.9219 19.5312C19.9219 18.2422 18.8672 17.1875 17.5781 17.1875C16.2891 17.1875 15.2344 18.2422 15.2344 19.5312C15.2344 20.8203 16.2891 21.875 17.5781 21.875C18.8672 21.875 19.9219 20.8203 19.9219 19.5312ZM16.7969 19.5312C16.7969 19.1016 17.1484 18.75 17.5781 18.75C18.0078 18.75 18.3594 19.1016 18.3594 19.5312C18.3594 19.9609 18.0078 20.3125 17.5781 20.3125C17.1484 20.3125 16.7969 19.9609 16.7969 19.5312Z" fill="#39AD9A"/>
<path d="M22.2656 26.5625C22.2656 27.8516 23.3203 28.9062 24.6094 28.9062C25.8984 28.9062 26.9531 27.8516 26.9531 26.5625C26.9531 25.2734 25.8984 24.2188 24.6094 24.2188C23.3203 24.2188 22.2656 25.2734 22.2656 26.5625ZM25.3906 26.5625C25.3906 26.9922 25.0391 27.3438 24.6094 27.3438C24.1797 27.3438 23.8281 26.9922 23.8281 26.5625C23.8281 26.1328 24.1797 25.7812 24.6094 25.7812C25.0391 25.7812 25.3906 26.1328 25.3906 26.5625Z" fill="#39AD9A"/>
</g>
<defs>
<clipPath id="clip0_19_1429">
<rect width="50" height="50" fill="white"/>
</clipPath>
</defs>
</svg>
