<svg width="17" height="18" viewBox="0 0 17 18" fill="none" xmlns="http://www.w3.org/2000/svg">
<path d="M13.782 11.1197C13.222 10.5026 12.4941 10.5026 11.9108 11.1197C11.4722 11.5838 11.0382 12.0429 10.5996 12.507C10.4783 12.6354 10.3803 12.6601 10.2357 12.586C9.96968 12.4083 9.65237 12.2799 9.3864 12.0972C8.12185 11.2481 7.05328 10.1668 6.10603 8.9375C5.64408 8.32036 5.23345 7.67854 4.93948 6.93304C4.89281 6.77999 4.89281 6.70099 5.01414 6.57263C5.47609 6.13323 5.88672 5.67408 6.32535 5.20999C6.93196 4.56817 6.93196 3.82267 6.32535 3.18084C5.96138 2.79575 5.62075 2.43534 5.28011 2.07493C4.91614 1.68984 4.57551 1.30475 4.21154 0.944339C3.6516 0.351887 2.92366 0.351887 2.34038 0.944339C1.90176 1.40843 1.4678 1.86758 1.02917 2.33166C0.613877 2.77106 0.399231 3.28452 0.347902 3.87204C0.273242 4.8249 0.492555 5.74813 0.809859 6.64669C1.4678 8.52278 2.46171 10.1421 3.6516 11.6578C5.28011 13.7166 7.22126 15.336 9.48439 16.4913C10.5063 17.0047 11.5515 17.4145 12.6668 17.4935C13.4693 17.5429 14.1506 17.3158 14.7059 16.669C15.0699 16.2049 15.5085 15.8198 15.8958 15.3853C16.4791 14.7435 16.4791 13.9733 15.8958 13.3562C15.1912 12.6107 14.4866 11.8652 13.782 11.1197Z" fill="#FDB913"/>
</svg>
