<svg width="21" height="20" viewBox="0 0 21 20" fill="none" xmlns="http://www.w3.org/2000/svg">
<path d="M10.6658 0C6.6719 0 3.42261 3.2493 3.42261 7.2432C3.42261 12.1998 9.9046 19.4763 10.1806 19.7836C10.4398 20.0723 10.8924 20.0718 11.1511 19.7836C11.4271 19.4763 17.9091 12.1998 17.9091 7.2432C17.909 3.2493 14.6598 0 10.6658 0ZM10.6658 10.8875C8.6564 10.8875 7.02163 9.25266 7.02163 7.2432C7.02163 5.23375 8.65644 3.59898 10.6658 3.59898C12.6753 3.59898 14.31 5.23379 14.31 7.24324C14.31 9.2527 12.6753 10.8875 10.6658 10.8875Z" fill="#FDB913"/>
</svg>
