<svg width="20" height="20" viewBox="0 0 20 20" fill="none" xmlns="http://www.w3.org/2000/svg">
<path d="M10 0C8.02219 0 6.08879 0.586489 4.4443 1.6853C2.79981 2.78412 1.51808 4.3459 0.761209 6.17316C0.00433279 8.00042 -0.1937 10.0111 0.192152 11.9509C0.578004 13.8907 1.53041 15.6725 2.92894 17.0711C4.32746 18.4696 6.10929 19.422 8.0491 19.8078C9.9889 20.1937 11.9996 19.9957 13.8268 19.2388C15.6541 18.4819 17.2159 17.2002 18.3147 15.5557C19.4135 13.9112 20 11.9778 20 9.99999C19.9971 7.34873 18.9425 4.8069 17.0678 2.93218C15.1931 1.05745 12.6513 0.00294095 10 0ZM13.0078 13.0078C12.7994 13.2161 12.5168 13.3331 12.2222 13.3331C11.9276 13.3331 11.645 13.2161 11.4367 13.0078L9.21444 10.7855C9.00606 10.5772 8.88895 10.2947 8.88889 9.99999V5.55555C8.88889 5.26087 9.00595 4.97825 9.21432 4.76988C9.4227 4.56151 9.70531 4.44444 10 4.44444C10.2947 4.44444 10.5773 4.56151 10.7857 4.76988C10.994 4.97825 11.1111 5.26087 11.1111 5.55555V9.54L13.0078 11.4367C13.2161 11.645 13.3331 11.9276 13.3331 12.2222C13.3331 12.5168 13.2161 12.7994 13.0078 13.0078Z" fill="#FDB913"/>
</svg>
