<svg width="20" height="20" viewBox="0 0 20 20" fill="none" xmlns="http://www.w3.org/2000/svg">
<g clip-path="url(#clip0_2026_266)">
<path d="M7.49902 17.334C7.40723 17.3342 7.33318 17.4082 7.33301 17.5L7.3457 17.5654C7.371 17.6251 7.43019 17.6669 7.49902 17.667C7.59107 17.667 7.66602 17.592 7.66602 17.5C7.66588 17.4312 7.62409 17.372 7.56445 17.3467L7.49902 17.334ZM9.33301 17.5C9.33301 18.5125 8.51155 19.334 7.49902 19.334C6.48665 19.3338 5.66602 18.5124 5.66602 17.5C5.66619 16.4877 6.48676 15.6672 7.49902 15.667C8.51144 15.667 9.33283 16.4876 9.33301 17.5Z" fill="black"/>
<path d="M16.667 17.334C16.5752 17.3342 16.5012 17.4082 16.501 17.5L16.5137 17.5654C16.539 17.6251 16.5982 17.6669 16.667 17.667C16.759 17.667 16.834 17.592 16.834 17.5C16.8339 17.4312 16.7921 17.372 16.7324 17.3467L16.667 17.334ZM18.501 17.5C18.501 18.5125 17.6795 19.334 16.667 19.334C15.6546 19.3338 14.834 18.5124 14.834 17.5C14.8342 16.4877 15.6547 15.6672 16.667 15.667C17.6794 15.667 18.5008 16.4876 18.501 17.5Z" fill="black"/>
<path d="M4.16699 -0.166992C4.64358 -0.166992 5.05388 0.169418 5.14746 0.636719L5.82031 4H19.167C19.465 4 19.7475 4.13274 19.9375 4.3623C20.1274 4.59182 20.2051 4.89391 20.1494 5.18652L18.8164 12.1787L18.8145 12.1865L17.834 11.9912L17.7715 11.9785L18.8145 12.1865C18.6925 12.8002 18.3585 13.3518 17.8711 13.7441C17.3885 14.1325 16.786 14.3395 16.167 14.332L8.06738 14.333C7.44841 14.3404 6.84581 14.1325 6.36328 13.7441C5.87611 13.352 5.54206 12.8008 5.41992 12.1875L4.02441 5.2168C4.02177 5.20486 4.01979 5.19276 4.01758 5.18066L3.34766 1.83301H0.833984C0.2817 1.83301 -0.166016 1.38529 -0.166016 0.833008C-0.166016 0.280723 0.2817 -0.166992 0.833984 -0.166992H4.16699ZM7.38086 11.7949L7.38184 11.7969C7.41236 11.9501 7.49557 12.0875 7.61719 12.1855C7.73899 12.2836 7.89152 12.3359 8.04785 12.333H16.1865L16.167 13.333V13.3584L16.1865 12.333C16.3429 12.336 16.4953 12.2836 16.6172 12.1855C16.7373 12.0888 16.8201 11.9536 16.8516 11.8027L17.958 6H6.2207L7.38086 11.7949Z" fill="black"/>
</g>
<defs>
<clipPath id="clip0_2026_266">
<rect width="20" height="20" fill="white"/>
</clipPath>
</defs>
</svg>
