<svg width="20" height="20" viewBox="0 0 20 20" fill="none" xmlns="http://www.w3.org/2000/svg">
<path fill-rule="evenodd" clip-rule="evenodd" d="M5.49957 0.124023H14.5306C15.4663 0.124569 16.3636 0.496534 17.0253 1.15821C17.687 1.81987 18.0589 2.71714 18.0594 3.65288V15.6428C18.0589 16.5785 17.687 17.4758 17.0253 18.1375C16.3636 18.7992 15.4663 19.1711 14.5306 19.1716H5.49957C4.56399 19.1706 3.66706 18.7984 3.0055 18.1369C2.34395 17.4753 1.97179 16.5784 1.9707 15.6428V3.65288C1.97179 2.7173 2.34395 1.82036 3.0055 1.15881C3.66706 0.497252 4.56399 0.125113 5.49957 0.124023ZM15.8003 16.9131C16.137 16.576 16.3264 16.1193 16.3269 15.6428V3.65288C16.3264 3.17645 16.137 2.71965 15.8003 2.38256C15.4636 2.04547 15.007 1.85559 14.5306 1.8545H5.49957C5.02314 1.85559 4.56657 2.04547 4.22987 2.38256C3.89317 2.71965 3.70379 3.17645 3.70325 3.65288V15.6428C3.70379 16.1193 3.89317 16.576 4.22987 16.9131C4.56657 17.2502 5.02314 17.4401 5.49957 17.4412H14.5306C15.007 17.4401 15.4636 17.2502 15.8003 16.9131ZM6.89471 5.24139H12.9297C13.047 5.23567 13.164 5.25382 13.274 5.29472C13.3839 5.33562 13.4845 5.39843 13.5694 5.47934C13.6544 5.56025 13.722 5.65756 13.7682 5.76539C13.8144 5.87322 13.8383 5.98931 13.8383 6.10663C13.8383 6.22394 13.8144 6.34004 13.7682 6.44786C13.722 6.55569 13.6544 6.65301 13.5694 6.73391C13.4845 6.81483 13.3839 6.87764 13.274 6.91853C13.164 6.95944 13.047 6.97758 12.9297 6.97186H6.89471C6.77754 6.97758 6.66042 6.95944 6.55047 6.91853C6.44052 6.87764 6.34001 6.81483 6.25506 6.73391C6.17011 6.65301 6.10249 6.55569 6.05628 6.44786C6.01007 6.34004 5.98622 6.22394 5.98622 6.10663C5.98622 5.98931 6.01007 5.87322 6.05628 5.76539C6.10249 5.65756 6.17011 5.56025 6.25506 5.47934C6.34001 5.39843 6.44052 5.33562 6.55047 5.29472C6.66042 5.25382 6.77754 5.23567 6.89471 5.24139ZM12.9297 8.7826H6.89471C6.77754 8.77687 6.66042 8.79502 6.55047 8.83592C6.44052 8.87683 6.34001 8.93964 6.25506 9.02054C6.17011 9.10145 6.10249 9.19877 6.05628 9.3066C6.01007 9.41443 5.98622 9.5305 5.98622 9.64784C5.98622 9.76517 6.01007 9.88126 6.05628 9.98907C6.10249 10.0969 6.17011 10.1942 6.25506 10.2752C6.34001 10.356 6.44052 10.4189 6.55047 10.4597C6.66042 10.5006 6.77754 10.5188 6.89471 10.5131H12.9297C13.047 10.5188 13.164 10.5006 13.274 10.4597C13.3839 10.4189 13.4845 10.356 13.5694 10.2752C13.6544 10.1942 13.722 10.0969 13.7682 9.98907C13.8144 9.88126 13.8383 9.76517 13.8383 9.64784C13.8383 9.5305 13.8144 9.41443 13.7682 9.3066C13.722 9.19877 13.6544 9.10145 13.5694 9.02054C13.4845 8.93964 13.3839 8.87683 13.274 8.83592C13.164 8.79502 13.047 8.77687 12.9297 8.7826ZM6.89471 12.3238H9.91122C10.0284 12.3181 10.1455 12.3362 10.2555 12.3772C10.3654 12.418 10.4659 12.4809 10.5508 12.5617C10.6358 12.6427 10.7034 12.7399 10.7497 12.8478C10.7959 12.9556 10.8197 13.0717 10.8197 13.1891C10.8197 13.3063 10.7959 13.4224 10.7497 13.5303C10.7034 13.6381 10.6358 13.7355 10.5508 13.8163C10.4659 13.8973 10.3654 13.96 10.2555 14.001C10.1455 14.0418 10.0284 14.06 9.91122 14.0543H6.89471C6.77754 14.06 6.66042 14.0418 6.55047 14.001C6.44052 13.96 6.34001 13.8973 6.25506 13.8163C6.17011 13.7355 6.10249 13.6381 6.05628 13.5303C6.01007 13.4224 5.98622 13.3063 5.98622 13.1891C5.98622 13.0717 6.01007 12.9556 6.05628 12.8478C6.10249 12.7399 6.17011 12.6427 6.25506 12.5617C6.34001 12.4809 6.44052 12.418 6.55047 12.3772C6.66042 12.3362 6.77754 12.3181 6.89471 12.3238Z" fill="black"/>
</svg>
