<svg width="20" height="20" viewBox="0 0 20 20" fill="none" xmlns="http://www.w3.org/2000/svg">
<g clip-path="url(#clip0_2026_293)">
<path fill-rule="evenodd" clip-rule="evenodd" d="M10 0C8.02219 0 6.08879 0.58649 4.4443 1.68531C2.7998 2.78412 1.51808 4.34591 0.761205 6.17317C0.00433047 8.00043 -0.193701 10.0111 0.192154 11.9509C0.578009 13.8907 1.53042 15.6726 2.92895 17.0711C4.32748 18.4696 6.10931 19.422 8.04912 19.8078C9.98893 20.1937 11.9996 19.9957 13.8269 19.2388C15.6541 18.4819 17.2159 17.2002 18.3147 15.5557C19.4135 13.9112 20 11.9778 20 9.99996C19.9985 7.34825 18.9445 4.80556 17.0695 2.93052C15.1944 1.05547 12.6517 0.00144645 10 0ZM10 2.22222C11.5383 2.22224 13.042 2.6784 14.321 3.53304C15.6001 4.38767 16.5969 5.60238 17.1856 7.02357C17.7743 8.44475 17.9283 10.0086 17.6282 11.5173C17.328 13.026 16.5873 14.4119 15.4996 15.4996C14.4118 16.5873 13.026 17.3281 11.5173 17.6282C10.0085 17.9283 8.44472 17.7742 7.02354 17.1856C5.60235 16.5969 4.38765 15.6 3.53302 14.321C2.67839 13.042 2.22223 11.5382 2.22223 9.99996C2.22303 7.93742 3.04274 5.95958 4.50118 4.50115C5.95962 3.04271 7.93746 2.22302 10 2.22222ZM5.80864 11.0462C5.70549 10.9431 5.62367 10.8206 5.56785 10.6858C5.51203 10.5511 5.48331 10.4066 5.48331 10.2607C5.48331 10.1149 5.51205 9.97041 5.56788 9.83564C5.62371 9.70087 5.70553 9.57842 5.80869 9.47527C5.91184 9.37213 6.0343 9.29031 6.16907 9.23449C6.30385 9.17867 6.44829 9.14994 6.59417 9.14994C6.74004 9.14995 6.88449 9.17869 7.01926 9.23452C7.15403 9.29034 7.27648 9.37217 7.37963 9.47532L8.69137 10.7869L12.6204 6.85788C12.7234 6.7541 12.8459 6.67168 12.9808 6.61535C13.1157 6.55901 13.2605 6.52987 13.4067 6.5296C13.5529 6.52933 13.6978 6.55793 13.8329 6.61376C13.9681 6.66959 14.0909 6.75156 14.1943 6.85496C14.2977 6.95835 14.3796 7.08115 14.4355 7.21629C14.4913 7.35144 14.5199 7.49628 14.5196 7.6425C14.5194 7.78873 14.4902 7.93346 14.4339 8.0684C14.3776 8.20334 14.2951 8.32583 14.1914 8.42885L9.47527 13.1419C9.37228 13.2454 9.24987 13.3274 9.11507 13.3835C8.98027 13.4395 8.83574 13.4683 8.68977 13.4683C8.5438 13.4683 8.39927 13.4395 8.26447 13.3835C8.12967 13.3274 8.00727 13.2454 7.90427 13.1419L5.80864 11.0462Z" fill="black"/>
</g>
<defs>
<clipPath id="clip0_2026_293">
<rect width="20" height="20" fill="white"/>
</clipPath>
</defs>
</svg>
