<svg width="20" height="20" viewBox="0 0 20 20" fill="none" xmlns="http://www.w3.org/2000/svg">
<g clip-path="url(#clip0_2026_260)">
<path d="M9.99696 11.1111C11.0957 11.1111 12.1699 10.7853 13.0835 10.1748C13.9971 9.56438 14.7091 8.69672 15.1296 7.68158C15.5501 6.66643 15.6601 5.54939 15.4458 4.47172C15.2314 3.39405 14.7023 2.40414 13.9253 1.62719C13.1484 0.850228 12.1585 0.321113 11.0808 0.106751C10.0031 -0.107611 8.88609 0.00240713 7.87094 0.422894C6.8558 0.843381 5.98814 1.55545 5.37769 2.46906C4.76723 3.38266 4.44141 4.45677 4.44141 5.55556C4.44317 7.02844 5.02905 8.44049 6.07054 9.48198C7.11203 10.5235 8.52408 11.1093 9.99696 11.1111ZM9.99696 2.22222C10.6562 2.22222 11.3007 2.41772 11.8489 2.78399C12.397 3.15026 12.8243 3.67086 13.0766 4.27995C13.3289 4.88903 13.3949 5.55925 13.2662 6.20586C13.1376 6.85246 12.8202 7.4464 12.354 7.91258C11.8878 8.37875 11.2939 8.69622 10.6473 8.82484C10.0007 8.95346 9.33044 8.88745 8.72135 8.63515C8.11226 8.38286 7.59167 7.95562 7.2254 7.40746C6.85912 6.85929 6.66363 6.21483 6.66363 5.55556C6.66363 4.6715 7.01482 3.82366 7.63994 3.19853C8.26506 2.57341 9.11291 2.22222 9.99696 2.22222Z" fill="black"/>
<path d="M14.9983 12.2227H4.99826C3.96687 12.2227 2.97771 12.6324 2.2484 13.3617C1.5191 14.091 1.10938 15.0801 1.10938 16.1115C1.10938 17.1429 1.5191 18.1321 2.2484 18.8614C2.97771 19.5907 3.96687 20.0004 4.99826 20.0004H14.9983C16.0297 20.0004 17.0188 19.5907 17.7481 18.8614C18.4774 18.1321 18.8871 17.1429 18.8871 16.1115C18.8871 15.0801 18.4774 14.091 17.7481 13.3617C17.0188 12.6324 16.0297 12.2227 14.9983 12.2227ZM14.9983 17.7782H4.99826C4.55624 17.7782 4.13231 17.6026 3.81975 17.2901C3.50719 16.9775 3.3316 16.5536 3.3316 16.1115C3.3316 15.6695 3.50719 15.2456 3.81975 14.933C4.13231 14.6205 4.55624 14.4449 4.99826 14.4449H14.9983C15.4403 14.4449 15.8642 14.6205 16.1768 14.933C16.4893 15.2456 16.6649 15.6695 16.6649 16.1115C16.6649 16.5536 16.4893 16.9775 16.1768 17.2901C15.8642 17.6026 15.4403 17.7782 14.9983 17.7782Z" fill="black"/>
</g>
<defs>
<clipPath id="clip0_2026_260">
<rect width="20" height="20" fill="white"/>
</clipPath>
</defs>
</svg>
