<svg width="20" height="20" viewBox="0 0 20 20" fill="none" xmlns="http://www.w3.org/2000/svg">
<path fill-rule="evenodd" clip-rule="evenodd" d="M9.99935 3.33366C6.31745 3.33366 3.33268 6.31843 3.33268 10.0003C3.33268 11.4104 3.76956 12.716 4.51532 13.7922C4.76212 14.1485 4.82162 14.624 4.62612 15.0447L3.87209 16.667H9.99935C13.6813 16.667 16.666 13.6822 16.666 10.0003C16.666 6.31843 13.6813 3.33366 9.99935 3.33366ZM1.66602 10.0003C1.66602 5.39795 5.39697 1.66699 9.99935 1.66699C14.6017 1.66699 18.3327 5.39795 18.3327 10.0003C18.3327 14.6027 14.6017 18.3337 9.99935 18.3337H3.21734C2.27215 18.3337 1.67423 17.3281 2.11107 16.5017L3.01747 14.5514C2.16286 13.2427 1.66602 11.6784 1.66602 10.0003Z" fill="black"/>
<path fill-rule="evenodd" clip-rule="evenodd" d="M6.66602 11.6673C6.66602 11.2071 7.03912 10.834 7.49935 10.834H12.4993C12.9596 10.834 13.3327 11.2071 13.3327 11.6673C13.3327 12.1276 12.9596 12.5007 12.4993 12.5007H7.49935C7.03912 12.5007 6.66602 12.1276 6.66602 11.6673Z" fill="black"/>
<path fill-rule="evenodd" clip-rule="evenodd" d="M6.66602 8.33333C6.66602 7.8731 7.03912 7.5 7.49935 7.5H9.16602C9.62627 7.5 9.99935 7.8731 9.99935 8.33333C9.99935 8.79358 9.62627 9.16667 9.16602 9.16667H7.49935C7.03912 9.16667 6.66602 8.79358 6.66602 8.33333Z" fill="black"/>
</svg>
