<svg width="20" height="20" viewBox="0 0 20 20" fill="none" xmlns="http://www.w3.org/2000/svg">
<path d="M15.2088 19.3532H5.1251C4.39573 19.3532 3.69623 19.0635 3.18049 18.5477C2.66474 18.032 2.375 17.3325 2.375 16.6031V10.1862C2.375 9.94311 2.47158 9.70994 2.64349 9.53803C2.81541 9.36611 3.04858 9.26953 3.2917 9.26953H17.0422C17.2853 9.26953 17.5185 9.36611 17.6904 9.53803C17.8623 9.70994 17.9589 9.94311 17.9589 10.1862V16.6031C17.9589 17.3325 17.6691 18.032 17.1534 18.5477C16.6377 19.0635 15.9382 19.3532 15.2088 19.3532ZM4.2084 11.1029V16.6031C4.2084 16.8462 4.30498 17.0794 4.47689 17.2513C4.64881 17.4232 4.88197 17.5198 5.1251 17.5198H15.2088C15.4519 17.5198 15.6851 17.4232 15.857 17.2513C16.0289 17.0794 16.1255 16.8462 16.1255 16.6031V11.1029H4.2084Z" fill="black"/>
<path d="M17.5006 11.1027H2.8334C2.34715 11.1027 1.88082 10.9096 1.53699 10.5657C1.19316 10.2219 1 9.75558 1 9.26934V7.43594C1 6.94969 1.19316 6.48336 1.53699 6.13953C1.88082 5.7957 2.34715 5.60254 2.8334 5.60254H17.5006C17.9868 5.60254 18.4532 5.7957 18.797 6.13953C19.1408 6.48336 19.334 6.94969 19.334 7.43594V9.26934C19.334 9.75558 19.1408 10.2219 18.797 10.5657C18.4532 10.9096 17.9868 11.1027 17.5006 11.1027ZM2.8334 7.43594V9.26934H17.5006V7.43594H2.8334Z" fill="black"/>
<path d="M10.3961 7.43611H10.1669C10.0187 7.4333 9.87337 7.39459 9.7434 7.3233C9.61344 7.25201 9.5027 7.15026 9.42068 7.02678C9.33866 6.9033 9.28781 6.76178 9.27249 6.61434C9.25717 6.46689 9.27783 6.31794 9.3327 6.18023C9.65355 5.37354 9.93772 4.55767 10.1761 3.75098C10.3961 3.09096 11.2303 1.00088 13.3662 1.00088C14.1986 0.98118 15.0049 1.29247 15.6081 1.86646C16.2113 2.44045 16.5622 3.23028 16.5838 4.06266C16.5838 5.98772 14.3929 6.81275 13.6687 7.0511C12.6014 7.33297 11.4996 7.46259 10.3961 7.43611ZM13.3478 2.85261C12.4311 2.85261 12.0278 3.95265 11.9178 4.29183C11.8078 4.63101 11.6519 5.13519 11.4961 5.56604C12.017 5.5466 12.5338 5.46661 13.0362 5.3277C13.467 5.17186 14.7504 4.68601 14.7504 4.06266C14.7223 3.71722 14.5594 3.39671 14.297 3.17032C14.0346 2.94392 13.6937 2.82981 13.3478 2.85261Z" fill="black"/>
<path d="M9.91938 7.43643C8.83069 7.45575 7.74463 7.32308 6.6926 7.04225C4.29085 6.25389 3.75 4.98885 3.75 4.07215C3.75577 3.68295 3.83992 3.2989 3.99742 2.94295C4.15492 2.58699 4.38255 2.26643 4.6667 2.00041C4.96919 1.68911 5.33121 1.44185 5.73122 1.27334C6.13123 1.10483 6.56106 1.01852 6.99511 1.01954C8.67267 1.01954 9.48854 2.53209 10.0936 3.60463C10.4687 4.46524 10.7752 5.35415 11.0103 6.26306C11.0499 6.39765 11.0581 6.53955 11.0343 6.67782C11.0104 6.81609 10.9552 6.94704 10.8728 7.06059C10.7911 7.17249 10.6852 7.26444 10.563 7.32954C10.4407 7.39463 10.3053 7.43118 10.1669 7.43643H9.91938ZM6.93095 2.85294C6.55667 2.87479 6.20385 3.03487 5.94091 3.30212C5.73438 3.49338 5.60685 3.75497 5.5834 4.03548C5.5834 4.48466 6.21592 4.95218 7.26096 5.30053C7.79917 5.45119 8.35272 5.54037 8.91102 5.56637C8.79864 5.20137 8.65764 4.84581 8.48933 4.503C7.95765 3.54046 7.53597 2.85294 6.95845 2.85294H6.93095Z" fill="black"/>
<path d="M10.1667 19.3532C9.92358 19.3532 9.69041 19.2566 9.5185 19.0847C9.34658 18.9128 9.25 18.6796 9.25 18.4365V10.1862C9.25 9.94311 9.34658 9.70994 9.5185 9.53803C9.69041 9.36611 9.92358 9.26953 10.1667 9.26953C10.4098 9.26953 10.643 9.36611 10.8149 9.53803C10.9868 9.70994 11.0834 9.94311 11.0834 10.1862V18.4365C11.0834 18.6796 10.9868 18.9128 10.8149 19.0847C10.643 19.2566 10.4098 19.3532 10.1667 19.3532Z" fill="black"/>
</svg>
