<svg width="20" height="20" viewBox="0 0 20 20" fill="none" xmlns="http://www.w3.org/2000/svg">
<path d="M18.7058 14.2108L14.4892 9.99965L18.3336 6.16076C18.6909 5.80341 18.8915 5.31882 18.8915 4.81354C18.8915 4.30825 18.6909 3.82366 18.3336 3.46631L16.5336 1.66631C16.1763 1.30908 15.6917 1.1084 15.1864 1.1084C14.6811 1.1084 14.1965 1.30908 13.8392 1.66631L10.0003 5.51076L5.78918 1.29965C5.73029 1.24019 5.6602 1.19298 5.58296 1.16077C5.50572 1.12856 5.42286 1.11197 5.33918 1.11197C5.25549 1.11197 5.17263 1.12856 5.09539 1.16077C5.01815 1.19298 4.94807 1.24019 4.88918 1.29965L1.29473 4.88854C1.23527 4.94742 1.18807 5.01751 1.15586 5.09475C1.12364 5.17199 1.10706 5.25485 1.10706 5.33854C1.10706 5.42222 1.12364 5.50508 1.15586 5.58232C1.18807 5.65956 1.23527 5.72965 1.29473 5.78854L5.5114 9.99965L2.68362 12.8274C2.2302 13.2814 1.92594 13.8628 1.8114 14.4941L1.1114 18.1385C1.09363 18.2382 1.1 18.3406 1.12996 18.4373C1.15993 18.5339 1.21262 18.622 1.28362 18.6941C1.35546 18.7657 1.44332 18.8192 1.53993 18.8501C1.63653 18.881 1.73911 18.8885 1.83918 18.8719L5.48362 18.1885C6.11547 18.0721 6.69684 17.7659 7.15029 17.3108L10.0003 14.4885L14.2114 18.6996C14.3318 18.8171 14.4933 18.8828 14.6614 18.8828C14.8295 18.8828 14.991 18.8171 15.1114 18.6996L18.7058 15.1052C18.8242 14.9865 18.8907 14.8257 18.8907 14.658C18.8907 14.4903 18.8242 14.3295 18.7058 14.2108ZM14.7392 2.54409C14.8595 2.42668 15.021 2.36096 15.1892 2.36096C15.3573 2.36096 15.5188 2.42668 15.6392 2.54409L17.4336 4.33854C17.5524 4.4582 17.619 4.61995 17.619 4.78854C17.619 4.95712 17.5524 5.11887 17.4336 5.23854L16.0225 6.66631L13.3336 3.97742L14.7392 2.54409ZM2.64473 5.32187L5.33918 2.64409L6.4114 3.71631L5.5114 4.61076L6.4114 5.51076L7.30584 4.61076L9.10029 6.4052L6.40584 9.09965L2.64473 5.32187ZM6.27251 16.4052C6.00217 16.6778 5.65537 16.8619 5.27807 16.933L2.54473 17.4441L3.05584 14.7219C3.12505 14.3451 3.30718 13.9983 3.57807 13.7274L12.4281 4.87742L15.1225 7.57187L6.27251 16.4052ZM14.6614 17.3385L10.8947 13.5719L13.5892 10.8774L15.3836 12.6719L14.4836 13.5719L15.3836 14.4719L16.2836 13.5719L17.3558 14.6441L14.6614 17.3385Z" fill="black"/>
</svg>
