<svg width="20" height="20" viewBox="0 0 20 20" fill="none" xmlns="http://www.w3.org/2000/svg">
<path d="M9.9991 0C6.00516 0 2.75586 3.2493 2.75586 7.2432C2.75586 12.1998 9.23785 19.4763 9.51383 19.7836C9.77305 20.0723 10.2256 20.0718 10.4844 19.7836C10.7604 19.4763 17.2423 12.1998 17.2423 7.2432C17.2423 3.2493 13.993 0 9.9991 0ZM9.9991 10.8875C7.98965 10.8875 6.35488 9.25266 6.35488 7.2432C6.35488 5.23375 7.98969 3.59898 9.9991 3.59898C12.0085 3.59898 13.6433 5.23379 13.6433 7.24324C13.6433 9.2527 12.0085 10.8875 9.9991 10.8875Z" fill="#FDB913"/>
</svg>
