<svg width="20" height="20" viewBox="0 0 20 20" fill="none" xmlns="http://www.w3.org/2000/svg">
<path d="M10 0C6.1 0 3 3.1 3 7C3 10.5 8.6 18.1 9.2 18.9L10 20L10.8 18.9C11.4 18.1 17 10.5 17 7C17 3.1 13.9 0 10 0ZM10 16.6C7.8 13.5 5 8.9 5 7C5 4.2 7.2 2 10 2C12.8 2 15 4.2 15 7C15 8.9 12.2 13.5 10 16.6Z" fill="black"/>
<path d="M10 4C8.3 4 7 5.3 7 7C7 8.7 8.3 10 10 10C11.7 10 13 8.7 13 7C13 5.3 11.7 4 10 4ZM10 8C9.4 8 9 7.5 9 7C9 6.5 9.4 6 10 6C10.6 6 11 6.4 11 7C11 7.6 10.6 8 10 8Z" fill="black"/>
</svg>
