<svg width="24" height="24" viewBox="0 0 24 24" fill="none" xmlns="http://www.w3.org/2000/svg">
<g clip-path="url(#clip0_2008_4789)">
<path d="M9.25863 18.5202C7.42709 18.5205 5.6366 17.9775 4.11364 16.9597C2.59069 15.942 1.40369 14.4953 0.702808 12.8026C0.00192562 11.11 -0.181356 9.2474 0.176148 7.45053C0.533652 5.65366 1.41588 4.00321 2.71123 2.70797C6.32026 -0.902658 12.1927 -0.902658 15.8022 2.70797C19.4117 6.31861 19.4113 12.1925 15.8022 15.8031C14.9436 16.6641 13.9237 17.3472 12.8009 17.8134C11.6781 18.2797 10.4744 18.5198 9.25863 18.5202ZM9.25863 2.36923C7.78016 2.37065 6.34137 2.84776 5.15483 3.73008C3.9683 4.61239 3.09696 5.85311 2.66957 7.2689C2.24218 8.68468 2.2814 10.2004 2.78145 11.5922C3.2815 12.984 4.21584 14.1779 5.44642 14.9977C5.8322 15.2548 6.24323 15.4718 6.67311 15.6453C7.92707 16.1538 9.30308 16.2812 10.629 16.0116C11.955 15.7419 13.172 15.0872 14.128 14.1292C16.8139 11.4425 16.8139 7.07001 14.128 4.38419C13.4888 3.74369 12.7294 3.23584 11.8935 2.88981C11.0575 2.54377 10.1614 2.36638 9.25673 2.3678L9.25863 2.36923Z" fill="#D9D9D9"/>
<path d="M23.0645 24.2518C22.9089 24.252 22.7549 24.2215 22.6112 24.162C22.4675 24.1025 22.337 24.0151 22.2271 23.905L14.1281 15.8035C13.906 15.5813 13.7812 15.28 13.7812 14.9658C13.7813 14.6517 13.906 14.3504 14.1281 14.1282C14.3502 13.9061 14.6514 13.7813 14.9655 13.7813C15.2795 13.7812 15.5808 13.9061 15.8028 14.1282L23.9018 22.2297C24.0675 22.3954 24.1803 22.6065 24.226 22.8362C24.2717 23.066 24.2482 23.3042 24.1586 23.5207C24.069 23.7371 23.9172 23.9221 23.7224 24.0523C23.5276 24.1824 23.2987 24.2519 23.0645 24.2518Z" fill="#D9D9D9"/>
</g>
<defs>
<clipPath id="clip0_2008_4789">
<rect width="24" height="24" fill="white"/>
</clipPath>
</defs>
</svg>
